<svg id="frequency" viewBox="-69 -260 489 326" xmlns="http://www.w3.org/2000/svg" style="font-family: sans-serif;"><g class="curve-fills"><path class="curve-fill" d="M0,0L19.047619047619047,-0.0038180082723512565L38.095238095238095,-0.028507795100222718L57.14285714285714,-0.07279669105949729L76.19047619047619,-0.24613426662424437L95.23809523809523,-0.3762010817690105L114.28571428571428,-0.8885777919185491L133.33333333333331,-1.0323894368437798L152.38095238095238,-1.2836143811644924L171.42857142857142,-2.9627744193445755L190.47619047619045,-4.86261533566656L209.52380952380955,-6.717403754374801L228.57142857142856,-4.595354756601973L247.61904761904762,-4.698950047725104L266.66666666666663,-3.7424117085587016L285.7142857142857,-3.4209354120267257L304.76190476190476,-3.0477887368755967L323.8095238095238,-3.278905504295259L342.85714285714283,-3.3333757556474706L361.9047619047619,-3.1595291123130766L380.9523809523809,-67.17683741648108L400,-200L400,0L380.9523809523809,0L361.9047619047619,0L342.85714285714283,0L323.8095238095238,0L304.76190476190476,0L285.7142857142857,0L266.66666666666663,0L247.61904761904762,0L228.57142857142856,0L209.52380952380955,0L190.47619047619045,0L171.42857142857142,0L152.38095238095238,0L133.33333333333331,0L114.28571428571428,0L95.23809523809523,0L76.19047619047619,0L57.14285714285714,0L38.095238095238095,0L19.047619047619047,0L0,0Z" fill="#f3f4f6"></path></g><g class="curve-strokes"><path stroke-dasharray="563.2973012980215 563.2973012980215" stroke-dashoffset="0" class="curve-stroke" d="M0,0L19.047619047619047,-0.0038180082723512565L38.095238095238095,-0.028507795100222718L57.14285714285714,-0.07279669105949729L76.19047619047619,-0.24613426662424437L95.23809523809523,-0.3762010817690105L114.28571428571428,-0.8885777919185491L133.33333333333331,-1.0323894368437798L152.38095238095238,-1.2836143811644924L171.42857142857142,-2.9627744193445755L190.47619047619045,-4.86261533566656L209.52380952380955,-6.717403754374801L228.57142857142856,-4.595354756601973L247.61904761904762,-4.698950047725104L266.66666666666663,-3.7424117085587016L285.7142857142857,-3.4209354120267257L304.76190476190476,-3.0477887368755967L323.8095238095238,-3.278905504295259L342.85714285714283,-3.3333757556474706L361.9047619047619,-3.1595291123130766L380.9523809523809,-67.17683741648108L400,-200" fill="none" stroke="#6b7280" stroke-width="2" stroke-linejoin="round" stroke-linecap="round"></path></g><g class="changepoints"><path style="opacity: 0.25;" class="changepoints-fill" d="M361.9047619047619,-200L380.9523809523809,-200L380.9523809523809,0L361.9047619047619,0Z" fill="#dd96ff" stroke="#7d3da9" stroke-dasharray="4 4"></path><text style="opacity: 1; font-size: 12px;" class="changepoints-text" transform="translate(371.42857142857144, -100) rotate(-90)" text-anchor="middle" dominant-baseline="middle" fill="#7d3da9">Change point</text></g><g class="x-axis" fill="none" font-size="10" font-family="sans-serif" text-anchor="middle"><path class="domain" stroke="currentColor" d="M0.5,6V0.5H400.5V6"></path><g class="tick" opacity="1" transform="translate(0.5,0)"><line stroke="currentColor" y2="6"></line><text fill="currentColor" y="9" dy="0.71em">2000</text></g><g class="tick" opacity="1" transform="translate(38.595238095238095,0)"><line stroke="currentColor" y2="6"></line><text fill="currentColor" y="9" dy="0.71em">2002</text></g><g class="tick" opacity="1" transform="translate(76.69047619047619,0)"><line stroke="currentColor" y2="6"></line><text fill="currentColor" y="9" dy="0.71em">2004</text></g><g class="tick" opacity="1" transform="translate(114.78571428571428,0)"><line stroke="currentColor" y2="6"></line><text fill="currentColor" y="9" dy="0.71em">2006</text></g><g class="tick" opacity="1" transform="translate(152.88095238095238,0)"><line stroke="currentColor" y2="6"></line><text fill="currentColor" y="9" dy="0.71em">2008</text></g><g class="tick" opacity="1" transform="translate(190.97619047619045,0)"><line stroke="currentColor" y2="6"></line><text fill="currentColor" y="9" dy="0.71em">2010</text></g><g class="tick" opacity="1" transform="translate(229.07142857142856,0)"><line stroke="currentColor" y2="6"></line><text fill="currentColor" y="9" dy="0.71em">2012</text></g><g class="tick" opacity="1" transform="translate(267.16666666666663,0)"><line stroke="currentColor" y2="6"></line><text fill="currentColor" y="9" dy="0.71em">2014</text></g><g class="tick" opacity="1" transform="translate(305.26190476190476,0)"><line stroke="currentColor" y2="6"></line><text fill="currentColor" y="9" dy="0.71em">2016</text></g><g class="tick" opacity="1" transform="translate(343.35714285714283,0)"><line stroke="currentColor" y2="6"></line><text fill="currentColor" y="9" dy="0.71em">2018</text></g><g class="tick" opacity="1" transform="translate(381.4523809523809,0)"><line stroke="currentColor" y2="6"></line><text fill="currentColor" y="9" dy="0.71em">2020</text></g></g><g class="y-axis" fill="none" font-size="10" font-family="sans-serif" text-anchor="end"><path class="domain" stroke="currentColor" d="M-6,0.5H0.5V-199.5H-6"></path><g class="tick" opacity="1" transform="translate(0,0.5)"><line stroke="currentColor" x2="-6"></line><text fill="currentColor" x="-9" dy="0.32em">less</text></g><g class="tick" opacity="1" transform="translate(0,-199.5)"><line stroke="currentColor" x2="-6"></line><text fill="currentColor" x="-9" dy="0.32em">more</text></g></g><g class="dots"><circle r="3" class="dot" fill="#e91e63" stroke="black" stroke-width="1" cx="0" cy="0"></circle><circle r="3" class="dot" fill="#ea2271" stroke="black" stroke-width="1" cx="19.047619047619047" cy="-0.0038180082723512565"></circle><circle r="3" class="dot" fill="#e9287f" stroke="black" stroke-width="1" cx="38.095238095238095" cy="-0.028507795100222718"></circle><circle r="3" class="dot" fill="#e7308d" stroke="black" stroke-width="1" cx="57.14285714285714" cy="-0.07279669105949729"></circle><circle r="3" class="dot" fill="#e4399a" stroke="black" stroke-width="1" cx="76.19047619047619" cy="-0.24613426662424437"></circle><circle r="3" class="dot" fill="#df42a7" stroke="black" stroke-width="1" cx="95.23809523809523" cy="-0.3762010817690105"></circle><circle r="3" class="dot" fill="#da4bb4" stroke="black" stroke-width="1" cx="114.28571428571428" cy="-0.8885777919185491"></circle><circle r="3" class="dot" fill="#d353bf" stroke="black" stroke-width="1" cx="133.33333333333331" cy="-1.0323894368437798"></circle><circle r="3" class="dot" fill="#cc5cca" stroke="black" stroke-width="1" cx="152.38095238095238" cy="-1.2836143811644924"></circle><circle r="3" class="dot" fill="#c364d4" stroke="black" stroke-width="1" cx="171.42857142857142" cy="-2.9627744193445755"></circle><circle r="3" class="dot" fill="#b96cdd" stroke="black" stroke-width="1" cx="190.47619047619045" cy="-4.86261533566656"></circle><circle r="3" class="dot" fill="#af73e4" stroke="black" stroke-width="1" cx="209.52380952380955" cy="-6.717403754374801"></circle><circle r="3" class="dot" fill="#a37aeb" stroke="black" stroke-width="1" cx="228.57142857142856" cy="-4.595354756601973"></circle><circle r="3" class="dot" fill="#9781f0" stroke="black" stroke-width="1" cx="247.61904761904762" cy="-4.698950047725104"></circle><circle r="3" class="dot" fill="#8a87f5" stroke="black" stroke-width="1" cx="266.66666666666663" cy="-3.7424117085587016"></circle><circle r="3" class="dot" fill="#7d8df8" stroke="black" stroke-width="1" cx="285.7142857142857" cy="-3.4209354120267257"></circle><circle r="3" class="dot" fill="#6f93fa" stroke="black" stroke-width="1" cx="304.76190476190476" cy="-3.0477887368755967"></circle><circle r="3" class="dot" fill="#5f98fb" stroke="black" stroke-width="1" cx="323.8095238095238" cy="-3.278905504295259"></circle><circle r="3" class="dot" fill="#4f9dfa" stroke="black" stroke-width="1" cx="342.85714285714283" cy="-3.3333757556474706"></circle><circle r="3" class="dot" fill="#3da1f9" stroke="black" stroke-width="1" cx="361.9047619047619" cy="-3.1595291123130766"></circle><circle r="3" class="dot" fill="#28a5f7" stroke="black" stroke-width="1" cx="380.9523809523809" cy="-67.17683741648108"></circle><circle r="3" class="dot" fill="#03a9f4" stroke="black" stroke-width="1" cx="400" cy="-200"></circle></g><text transform="translate(200, 40)" text-anchor="middle" dominant-baseline="middle" style="font-size: 12px;">Year</text><text transform="translate(-40, -100) rotate(-90)" text-anchor="middle" dominant-baseline="middle" style="font-size: 12px;">Frequency</text><text x="200" y="-230" text-anchor="middle" style="font-size: 12px; font-weight: 600;">How often "pandemic" has been used over time</text></svg>